<?xml version="1.0" encoding="utf-8"?>
<!-- Generator: Adobe Illustrator 19.0.0, SVG Export Plug-In . SVG Version: 6.00 Build 0)  -->
<svg version="1.1" id="Calque_1" xmlns="http://www.w3.org/2000/svg" xmlns:xlink="http://www.w3.org/1999/xlink" x="0px" y="0px"
	 viewBox="0 0 1800 1200" style="enable-background:new 0 0 1800 1200;" xml:space="preserve">
<style type="text/css">
	.st0{clip-path:url(#XMLID_6_);fill:#FFFFFF;}
	.st1{clip-path:url(#XMLID_6_);}
	.st2{fill:#FFFFFF;}
	.st3{clip-path:url(#XMLID_6_);fill:url(#path-2_2_);stroke:url(#path-2_3_);stroke-miterlimit:10;}
	.st4{opacity:7.000000e-002;clip-path:url(#XMLID_6_);fill:#F9CBCC;enable-background:new    ;}
	.st5{opacity:0.1;clip-path:url(#XMLID_6_);fill:#FBCC9B;enable-background:new    ;}
	.st6{opacity:0.2;clip-path:url(#XMLID_6_);fill:#FBCFB4;enable-background:new    ;}
	.st7{opacity:0.1;clip-path:url(#XMLID_6_);fill:url(#Path-7_3_);enable-background:new    ;}
</style>
<g id="XMLID_4_">
	<defs>
		<rect id="XMLID_1_" x="-1.2" y="1" width="1801.2" height="1199"/>
	</defs>
	<clipPath id="XMLID_6_">
		<use xlink:href="#XMLID_1_"  style="overflow:visible;"/>
	</clipPath>
	<rect id="XMLID_3_" x="-1.1" y="0.9" class="st0" width="2560" height="690.1"/>
	<g id="XMLID_2_" class="st1">
		<path id="path-2" class="st2" d="M-1.1,0.9h2560v610c-426.7,53.3-853.3,80-1280,80s-853.3-26.7-1280-80L-1.1,0.9L-1.1,0.9z"/>
	</g>
	
		<linearGradient id="path-2_2_" gradientUnits="userSpaceOnUse" x1="-1444.2803" y1="33.3932" x2="-1446.4004" y2="31.4436" gradientTransform="matrix(2560 0 0 690 3702873 -21698)">
		<stop  offset="3.268069e-003" style="stop-color:#D8173C"/>
		<stop  offset="0.4052" style="stop-color:#D91A3D"/>
		<stop  offset="0.5499" style="stop-color:#DA2541"/>
		<stop  offset="0.6531" style="stop-color:#DE3349"/>
		<stop  offset="0.7365" style="stop-color:#E24655"/>
		<stop  offset="0.8071" style="stop-color:#E85E66"/>
		<stop  offset="0.8527" style="stop-color:#EE7176"/>
		<stop  offset="1" style="stop-color:#E94465"/>
	</linearGradient>
	<linearGradient id="path-2_3_" gradientUnits="userSpaceOnUse" x1="-1.7277" y1="704.9272" x2="5222.897" y2="704.9272">
		<stop  offset="0" style="stop-color:#FFFFFF"/>
		<stop  offset="1" style="stop-color:#000000"/>
	</linearGradient>
	<path id="path-2_1_" class="st3" d="M-1.2,1h5223.6v1244.7c-870.7,108.8-1741.1,163.2-2611.8,163.2S869.4,1354.4-1.2,1245.7V1
		L-1.2,1z"/>
	<path id="Path-2" class="st4" d="M2334.5,699.8c-464.5-89-757.3-98.1-878.4-27.2C1274.5,779,1350,877.7,1192.6,933
		s-369.1,67.4-422.3,178.9s-592.9,106.2-505.1-58.4s461-96.1,505.1-294.9c44.1-198.8-319.6-179.9-404.9-263
		c-56.9-55.4-56.9-116.8,0-184.1h-899.9V1212h2869V699.8z"/>
	<path id="Path-5" class="st5" d="M1707,774.8c558-396.7,781.5-581.8,670.4-555.4c-166.6,39.7-120.4-39.7-441,83.3
		S1508.7,398,1377.8,636C1290.5,794.7,1400.3,840.9,1707,774.8z"/>
	<path id="Path-6" class="st6" d="M-11.7,69.9C19,64,36.7,67.2,41.5,79.5C48.7,98,108,49,104.6,99.2s-26.9,87.1-62.3,106.6
		s-90.1,17.5-111.6-44.9C-83.6,119.4-64.4,89.1-11.7,69.9z"/>
	<path id="Path-7" class="st5" d="M2141.2-453.3c-173.7,126.9-210.4,147-250.5,290.6s-608,477.7-454.3,474.3
		c153.7-3.3,294-110.2,454.3-130.3c160.3-20,217.1-116.9,340.7-213.8c82.4-64.6,238.3-226,467.7-484.4
		c-109.1,33.4-148.1-3.3-116.9-110.2c46.8-160.3-223.8-43.4-287.3,33.4C2231.4-516.8,2314.9-580.2,2141.2-453.3z"/>
	<path id="Path-7_1_" class="st5" d="M508.7,1066.4c-200.6,77.7-103.5,38-184.7,95.7c-81.2,57.8-372.8,100.7-286.1-42.1
		c57.8-95.2,29.6-140.8-84.4-136.7c288.4-190.2,480.8-305.8,577.1-346.8C675.1,574.9,755,496,915,518.2
		c160.1,22.1,323.3-44.8,472.5-8.3c149.3,36.5-485.7,212.2-561.6,340.6S709.3,988.8,508.7,1066.4z"/>
	
		<linearGradient id="Path-7_3_" gradientUnits="userSpaceOnUse" x1="-535.655" y1="-705.9343" x2="-534.985" y2="-706.3815" gradientTransform="matrix(-1456.7214 0 0 -717.5326 -779007 -506602.9688)">
		<stop  offset="0" style="stop-color:#FEE8CA;stop-opacity:0"/>
		<stop  offset="1" style="stop-color:#FBCC9B"/>
	</linearGradient>
	<path id="Path-7_2_" class="st7" d="M1229.2-256.1c200.6-77.7,103.5-38,184.7-95.7c81.2-57.8,372.8-100.7,286.1,42.1
		c-57.8,95.2-29.6,140.8,84.4,136.7C1496,17.2,1303.6,132.8,1207.3,173.8c-144.5,61.6-224.4,140.5-384.4,118.3
		c-160.1-22.1-323.3,44.8-472.5,8.3C201.1,263.9,836.1,88.2,912-40.2S1028.6-178.4,1229.2-256.1z"/>
</g>
</svg>
